<?xml version="1.0" encoding="utf-8"?>
<!DOCTYPE svg PUBLIC "-//W3C//DTD SVG 1.0//EN" "http://www.w3.org/TR/2001/REC-SVG-20010904/DTD/svg10.dtd">
<svg version="1.0" xmlns="http://www.w3.org/2000/svg" width="175px" height="186px" viewBox="0 0 175 186" preserveAspectRatio="xMidYMid meet">
 <g fill="#eb413e">
  <path d="M84.06 162.95 c-12.91 -12.24 -37.66 -36.50 -41.97 -41.14 -5.19 -5.61 -9.01 -11.40 -11.75 -17.82 -3.18 -7.43 -4.60 -14.34 -4.62 -22.32 -0.04 -11.71 3.16 -22.46 9.53 -32.07 9.28 -14.01 24.17 -23.90 40.26 -26.73 4.80 -0.85 5.65 -0.90 12 -0.92 5.84 0 6.21 0.02 9.01 0.49 11.50 1.91 20.75 6.05 29.80 13.32 2.15 1.75 6.76 6.35 8.50 8.50 6.28 7.82 10.51 16.78 12.28 25.93 0.76 3.92 1.09 7.30 1.09 11.20 0 11.34 -3.46 22.63 -9.91 32.27 -2.40 3.56 -4.82 6.47 -8.91 10.69 -4.90 5.05 -22 21.65 -34.72 33.69 -7.50 7.11 -7.64 7.23 -7.89 7.23 -0.12 0 -1.34 -1.06 -2.70 -2.35z m7.59 -65.04 c3.05 -0.81 5.96 -2.54 8.15 -4.83 3.21 -3.33 4.71 -7.06 4.71 -11.66 -0.02 -4.76 -1.66 -8.73 -4.97 -12.05 -2.29 -2.31 -5.06 -3.88 -8.24 -4.64 -2.51 -0.60 -7.11 -0.37 -9.70 0.48 -8.71 2.86 -13.71 11.66 -11.47 20.25 0.81 3.10 2.08 5.27 4.50 7.69 2.89 2.89 5.95 4.46 9.97 5.13 1.55 0.25 5.49 0.05 7.06 -0.37z"/>
 </g>
</svg>